<svg xmlns="http://www.w3.org/2000/svg" viewBox="0 0 64 64"><defs><style>.cls-1{fill:none;stroke:#db2b30;stroke-linecap:round;stroke-linejoin:round;stroke-width:3px;}.cls-2{fill:#db2b30;}</style></defs><g id="Слой_2" data-name="Слой 2"><g id="Слой_3" data-name="Слой 3"><circle class="cls-1" cx="32" cy="32" r="16"/><rect class="cls-2" x="30" width="4" height="8" rx="2"/><rect class="cls-2" x="30" y="56" width="4" height="8" rx="2"/><rect class="cls-2" x="2" y="28" width="4" height="8" rx="2" transform="translate(-28 36) rotate(-90)"/><rect class="cls-2" x="58" y="28" width="4" height="8" rx="2" transform="translate(28 92) rotate(-90)"/><rect class="cls-2" x="10.2" y="8.2" width="4" height="8" rx="2" transform="translate(-5.05 12.2) rotate(-45)"/><rect class="cls-2" x="49.8" y="47.8" width="4" height="8" rx="2" transform="translate(-21.46 51.8) rotate(-45)"/><rect class="cls-2" x="10.2" y="47.8" width="4" height="8" rx="2" transform="translate(-15.8 97.05) rotate(-135)"/><rect class="cls-2" x="49.8" y="8.2" width="4" height="8" rx="2" transform="translate(79.8 57.45) rotate(-135)"/></g></g></svg>