<svg xmlns="http://www.w3.org/2000/svg" xmlns:xlink="http://www.w3.org/1999/xlink" viewBox="0 0 53.48 62.98"><defs><style>.cls-1,.cls-2,.cls-4,.cls-6{fill:none;}.cls-2,.cls-4,.cls-6{stroke:#db2b30;stroke-width:3px;}.cls-2{stroke-linejoin:round;}.cls-3{clip-path:url(#clip-path);}.cls-5{font-size:20px;fill:#db2b30;font-family:SofiaPro-Bold, Sofia Pro;font-weight:700;letter-spacing:-0.03em;}.cls-6{stroke-miterlimit:10;}</style><clipPath id="clip-path"><path class="cls-1" d="M1.5,6.48v55h45v-55Zm25.85,38A13.46,13.46,0,1,1,40.81,31,13.46,13.46,0,0,1,27.35,44.44Z"/></clipPath></defs><g id="Слой_2" data-name="Слой 2"><path class="cls-2" d="M46.5,54.42v4.06a3,3,0,0,1-3,3H4.5a3,3,0,0,1-3-3v-49"/><path class="cls-2" d="M9,6.48H43.5a3,3,0,0,1,3,3V45.84"/><rect class="cls-1" x="41.4" y="47.51" width="10.97" height="6" rx="2.17" transform="translate(49.45 -18.36) rotate(45)"/><path class="cls-2" d="M1.5,12.29V4.5a3,3,0,0,1,3-3H8.84V54.29H4.5a3,3,0,0,0-3,3v1.19a3,3,0,0,0,3,3H8.84"/><g class="cls-3"><line class="cls-4" x1="12.99" y1="15.45" x2="20.99" y2="15.45"/><line class="cls-4" x1="13" y1="23.49" x2="21" y2="23.49"/><line class="cls-4" x1="13" y1="31.49" x2="21" y2="31.49"/><line class="cls-4" x1="13" y1="42.48" x2="21" y2="42.48"/><line class="cls-4" x1="12.99" y1="50.49" x2="25.99" y2="50.49"/><line class="cls-4" x1="30" y1="50.49" x2="36" y2="50.49"/></g><text class="cls-5" transform="translate(21.71 38.92)">T</text><circle class="cls-4" cx="27.35" cy="30.98" r="13.45"/><line class="cls-6" x1="36.87" y1="40.5" x2="43" y2="46.63"/><rect class="cls-6" x="41.4" y="47.51" width="10.97" height="6" rx="2.17" transform="translate(49.45 -18.36) rotate(45)"/></g></svg>